<?xml version="1.0" encoding="UTF-8"?>
<!DOCTYPE svg PUBLIC "-//W3C//DTD SVG 1.1//EN" "http://www.w3.org/Graphics/SVG/1.1/DTD/svg11.dtd">
<!-- Creator: CorelDRAW 2017 -->
<svg xmlns="http://www.w3.org/2000/svg" xml:space="preserve" width="150mm" height="150mm" version="1.1" style="shape-rendering:geometricPrecision; text-rendering:geometricPrecision; image-rendering:optimizeQuality; fill-rule:evenodd; clip-rule:evenodd"
viewBox="0 0 15000 15000"
 xmlns:xlink="http://www.w3.org/1999/xlink">
 <defs>
  <style type="text/css">
   <![CDATA[
    .fil1 {fill:none}
    .fil0 {fill:black;fill-opacity:0.101961}
   ]]>
  </style>
   <clipPath id="id0">
    <path d="M0 0l15000 0 0 15000 -15000 0 0 -15000z"/>
   </clipPath>
 </defs>
 <g id="Layer_x0020_1">
  <metadata id="CorelCorpID_0Corel-Layer"/>
  <g>
  </g>
  <g style="clip-path:url(#id0)">
   <g>
    <path class="fil0" d="M-71902 29985l101887 -101887 703 703 -101887 101887 -703 -703zm56213 56213l101887 -101887 703 703 -101887 101887 -703 -703zm-1405 -1405l101887 -101887 703 703 -101887 101887 -703 -703zm-1405 -1405l101887 -101887 703 703 -101887 101887 -703 -703zm-1405 -1405l101887 -101887 703 703 -101887 101887 -703 -703zm-1405 -1405l101887 -101887 703 703 -101887 101887 -703 -703zm-1405 -1405l101887 -101887 703 703 -101887 101887 -703 -703zm-1405 -1405l101887 -101887 703 703 -101887 101887 -703 -703zm-1405 -1405l101887 -101887 703 703 -101887 101887 -703 -703zm-1405 -1405l101887 -101887 703 703 -101887 101887 -703 -703zm-1405 -1405l101887 -101887 703 703 -101887 101887 -703 -703zm-1405 -1405l101887 -101887 703 703 -101887 101887 -703 -703zm-1405 -1405l101887 -101887 703 703 -101887 101887 -703 -703zm-1405 -1405l101887 -101887 703 703 -101887 101887 -703 -703zm-1405 -1405l101887 -101887 703 703 -101887 101887 -703 -703zm-1405 -1405l101887 -101887 703 703 -101887 101887 -703 -703zm-1405 -1405l101887 -101887 703 703 -101887 101887 -703 -703zm-1405 -1405l101887 -101887 703 703 -101887 101887 -703 -703zm-1405 -1405l101887 -101887 703 703 -101887 101887 -703 -703zm-1405 -1405l101887 -101887 703 703 -101887 101887 -703 -703zm-1405 -1405l101887 -101887 703 703 -101887 101887 -703 -703zm-1405 -1405l101887 -101887 703 703 -101887 101887 -703 -703zm-1405 -1405l101887 -101887 703 703 -101887 101887 -703 -703zm-1405 -1405l101887 -101887 703 703 -101887 101887 -703 -703zm-1405 -1405l101887 -101887 703 703 -101887 101887 -703 -703zm-1405 -1405l101887 -101887 703 703 -101887 101887 -703 -703zm-1405 -1405l101887 -101887 703 703 -101887 101887 -703 -703zm-1405 -1405l101887 -101887 703 703 -101887 101887 -703 -703zm-1405 -1405l101887 -101887 703 703 -101887 101887 -703 -703zm-1405 -1405l101887 -101887 703 703 -101887 101887 -703 -703zm-1405 -1405l101887 -101887 703 703 -101887 101887 -703 -703zm-1405 -1405l101887 -101887 703 703 -101887 101887 -703 -703zm-1405 -1405l101887 -101887 703 703 -101887 101887 -703 -703zm-1405 -1405l101887 -101887 703 703 -101887 101887 -703 -703zm-1405 -1405l101887 -101887 703 703 -101887 101887 -703 -703zm-1405 -1405l101887 -101887 703 703 -101887 101887 -703 -703zm-1405 -1405l101887 -101887 703 703 -101887 101887 -703 -703zm-1405 -1405l101887 -101887 703 703 -101887 101887 -703 -703zm-1405 -1405l101887 -101887 703 703 -101887 101887 -703 -703zm-1405 -1405l101887 -101887 703 703 -101887 101887 -703 -703zm-1405 -1405l101887 -101887 703 703 -101887 101887 -703 -703z"/>
   </g>
  </g>
  <polygon class="fil1" points="0,0 15000,0 15000,15000 0,15000 "/>
 </g>
</svg>
