<?xml version="1.0" encoding="UTF-8"?>
<!DOCTYPE svg PUBLIC "-//W3C//DTD SVG 1.1//EN" "http://www.w3.org/Graphics/SVG/1.1/DTD/svg11.dtd">
<!-- Creator: CorelDRAW 2017 -->
<svg xmlns="http://www.w3.org/2000/svg" xml:space="preserve" width="446.393mm" height="149.494mm" version="1.1" style="shape-rendering:geometricPrecision; text-rendering:geometricPrecision; image-rendering:optimizeQuality; fill-rule:evenodd; clip-rule:evenodd"
viewBox="0 0 44442 14883"
 xmlns:xlink="http://www.w3.org/1999/xlink">
 <defs>
  <style type="text/css">
   <![CDATA[
    .fil2 {fill:none}
    .fil0 {fill:white}
    .fil1 {fill:black;fill-opacity:0.101961}
   ]]>
  </style>
    <clipPath id="id0">
     <path d="M3307 191c-2014,597 -3351,2496 -3306,4187 7,4114 4036,3711 5671,4913 12,-68 18,-137 18,-208 0,-345 -144,-657 -377,-882 14,-21 28,-42 41,-64 199,127 437,200 692,200 702,0 1270,-555 1270,-1240 0,-25 -1,-50 -2,-75 -1851,-971 -4321,-807 -4351,-2740 -20,-372 134,-771 409,-1085 -131,-81 -286,-127 -452,-127 -173,0 -335,51 -469,138 -30,-122 -74,-238 -130,-347 780,-148 1369,-818 1369,-1623 0,-398 -144,-763 -383,-1048zm4062 13039c468,0 847,370 847,827 0,457 -379,827 -847,827 -468,0 -847,-370 -847,-827 0,-457 379,-827 847,-827zm377 -1621c117,0 212,93 212,207 0,114 -95,207 -212,207 -117,0 -212,-93 -212,-207 0,-114 95,-207 212,-207zm-318 689c234,0 423,185 423,413 0,228 -190,413 -423,413 -234,0 -423,-185 -423,-413 0,-228 190,-413 423,-413zm668 -101c117,0 212,93 212,207 0,114 -95,207 -212,207 -117,0 -212,-93 -212,-207 0,-114 95,-207 212,-207zm582 620c117,0 212,93 212,207 0,114 -95,207 -212,207 -117,0 -212,-93 -212,-207 0,-114 95,-207 212,-207zm-56 -3098c117,0 212,93 212,207 0,114 -95,207 -212,207 -117,0 -212,-93 -212,-207 0,-114 95,-207 212,-207zm1326 -623c117,0 212,93 212,207 0,114 -95,207 -212,207 -117,0 -212,-93 -212,-207 0,-114 95,-207 212,-207zm-741 -827c58,0 106,46 106,103 0,57 -47,103 -106,103 -58,0 -106,-46 -106,-103 0,-57 47,-103 106,-103zm847 3101c58,0 106,46 106,103 0,57 -47,103 -106,103 -58,0 -106,-46 -106,-103 0,-57 47,-103 106,-103zm-2851 -2687c117,0 212,93 212,207 0,114 -95,207 -212,207 -117,0 -212,-93 -212,-207 0,-114 95,-207 212,-207zm2004 369c117,0 212,93 212,207 0,114 -95,207 -212,207 -117,0 -212,-93 -212,-207 0,-114 95,-207 212,-207zm232 607c175,0 318,139 318,310 0,171 -142,310 -318,310 -175,0 -318,-139 -318,-310 0,-171 142,-310 318,-310zm-119 2481c175,0 318,139 318,310 0,171 -142,310 -318,310 -175,0 -318,-139 -318,-310 0,-171 142,-310 318,-310zm-1277 -4697c234,0 423,185 423,413 0,228 -190,413 -423,413 -234,0 -423,-185 -423,-413 0,-228 190,-413 423,-413zm-734 459c175,0 318,139 318,310 0,171 -142,310 -318,310 -175,0 -318,-139 -318,-310 0,-171 142,-310 318,-310zm734 885c234,0 423,185 423,413 0,228 -190,413 -423,413 -234,0 -423,-185 -423,-413 0,-228 190,-413 423,-413zm847 1550c468,0 847,370 847,827 0,457 -379,827 -847,827 -468,0 -847,-370 -847,-827 0,-457 379,-827 847,-827zm-529 -8208c58,0 106,46 106,103 0,57 -47,103 -106,103 -58,0 -106,-46 -106,-103 0,-57 47,-103 106,-103zm-570 2563c58,0 106,46 106,103 0,57 -47,103 -106,103 -58,0 -106,-46 -106,-103 0,-57 47,-103 106,-103zm-455 64c117,0 212,93 212,207 0,114 -95,207 -212,207 -117,0 -212,-93 -212,-207 0,-114 95,-207 212,-207zm1155 -1314c117,0 212,93 212,207 0,114 -95,207 -212,207 -117,0 -212,-93 -212,-207 0,-114 95,-207 212,-207zm-1830 -3091c175,0 318,139 318,310 0,171 -142,310 -318,310 -175,0 -318,-139 -318,-310 0,-171 142,-310 318,-310zm-819 -349c234,0 423,185 423,413 0,228 -190,413 -423,413 -234,0 -423,-185 -423,-413 0,-228 190,-413 423,-413zm-1305 97c468,0 847,370 847,827 0,457 -379,827 -847,827 -468,0 -847,-370 -847,-827 0,-457 379,-827 847,-827zm629 1570c175,0 318,139 318,310 0,171 -142,310 -318,310 -175,0 -318,-139 -318,-310 0,-171 142,-310 318,-310zm94 701c234,0 423,185 423,413 0,228 -190,413 -423,413 -234,0 -423,-185 -423,-413 0,-228 190,-413 423,-413zm-1285 -665c117,0 212,93 212,207 0,114 -95,207 -212,207 -117,0 -212,-93 -212,-207 0,-114 95,-207 212,-207zm-456 853c175,0 318,139 318,310 0,171 -142,310 -318,310 -175,0 -318,-139 -318,-310 0,-171 142,-310 318,-310zm2513 627c117,0 212,93 212,207 0,114 -95,207 -212,207 -117,0 -212,-93 -212,-207 0,-114 95,-207 212,-207zm2580 -2032c58,0 106,46 106,103 0,57 -47,103 -106,103 -58,0 -106,-46 -106,-103 0,-57 47,-103 106,-103zm398 540c58,0 106,46 106,103 0,57 -47,103 -106,103 -58,0 -106,-46 -106,-103 0,-57 47,-103 106,-103zm939 376c117,0 212,93 212,207 0,114 -95,207 -212,207 -117,0 -212,-93 -212,-207 0,-114 95,-207 212,-207zm-1854 -662c117,0 212,93 212,207 0,114 -95,207 -212,207 -117,0 -212,-93 -212,-207 0,-114 95,-207 212,-207zm-1105 1699c234,0 423,185 423,413 0,228 -190,413 -423,413 -234,0 -423,-185 -423,-413 0,-228 190,-413 423,-413zm2249 87c117,0 212,93 212,207 0,114 -95,207 -212,207 -117,0 -212,-93 -212,-207 0,-114 95,-207 212,-207zm-548 -571c175,0 318,139 318,310 0,171 -142,310 -318,310 -175,0 -318,-139 -318,-310 0,-171 142,-310 318,-310zm-736 419c175,0 318,139 318,310 0,171 -142,310 -318,310 -175,0 -318,-139 -318,-310 0,-171 142,-310 318,-310zm405 -3040c58,0 106,46 106,103 0,57 -47,103 -106,103 -58,0 -106,-46 -106,-103 0,-57 47,-103 106,-103zm-1983 2665c117,0 212,93 212,207 0,114 -95,207 -212,207 -117,0 -212,-93 -212,-207 0,-114 95,-207 212,-207zm-526 -520c117,0 212,93 212,207 0,114 -95,207 -212,207 -117,0 -212,-93 -212,-207 0,-114 95,-207 212,-207zm1356 -1033c234,0 423,185 423,413 0,228 -190,413 -423,413 -234,0 -423,-185 -423,-413 0,-228 190,-413 423,-413zm-1285 -9c175,0 318,139 318,310 0,171 -142,310 -318,310 -175,0 -318,-139 -318,-310 0,-171 142,-310 318,-310zm1500 1065c234,0 423,185 423,413 0,228 -190,413 -423,413 -234,0 -423,-185 -423,-413 0,-228 190,-413 423,-413zm1942 2213c117,0 212,93 212,207 0,114 -95,207 -212,207 -117,0 -212,-93 -212,-207 0,-114 95,-207 212,-207zm-870 -252c234,0 423,185 423,413 0,228 -190,413 -423,413 -234,0 -423,-185 -423,-413 0,-228 190,-413 423,-413zm-2181 -278c234,0 423,185 423,413 0,228 -190,413 -423,413 -234,0 -423,-185 -423,-413 0,-228 190,-413 423,-413zm-478 5576c294,267 482,608 509,1075 0,967 -662,1756 -1690,1756 -958,-52 -1575,-634 -1687,-1508l-2968 0c307,2463 2301,4114 4655,4134 219,-3 432,-19 637,-47 31,-76 50,-158 56,-243 54,10 109,16 166,16 468,0 847,-370 847,-827 0,-108 -21,-211 -60,-306 372,-216 621,-613 621,-1066 0,-372 -167,-705 -433,-932 54,-109 85,-231 85,-361 0,-66 -8,-131 -23,-193 305,-125 520,-419 520,-763 0,-457 -379,-827 -847,-827 -140,0 -272,33 -388,92zm1459 1174c234,0 423,185 423,413 0,228 -190,413 -423,413 -234,0 -423,-185 -423,-413 0,-228 190,-413 423,-413zm635 -581c175,0 318,139 318,310 0,171 -142,310 -318,310 -175,0 -318,-139 -318,-310 0,-171 142,-310 318,-310zm-615 -329c117,0 212,93 212,207 0,114 -95,207 -212,207 -117,0 -212,-93 -212,-207 0,-114 95,-207 212,-207zm-959 -1273c234,0 423,185 423,413 0,228 -190,413 -423,413 -234,0 -423,-185 -423,-413 0,-228 190,-413 423,-413z"/>
    </clipPath>
    <clipPath id="id1">
     <path d="M14565 12715c-513,0 -966,-136 -1353,-404 -340,-236 -580,-531 -721,-891l469 -127c113,270 292,492 538,665 298,208 653,313 1067,313 179,0 364,-21 553,-60 452,-101 777,-340 979,-715 160,-306 212,-621 156,-942 -105,-585 -664,-1058 -1677,-1417 -477,-170 -832,-334 -1063,-488 -410,-272 -639,-605 -687,-1002 -44,-359 61,-691 319,-997 239,-282 530,-463 878,-543 208,-50 416,-76 620,-76 376,0 706,79 990,237 279,156 479,375 597,653l-469 132c-187,-387 -561,-580 -1124,-580 -160,0 -322,17 -487,55 -235,57 -437,186 -609,387 -179,218 -256,445 -229,681 32,268 193,500 481,695 197,131 517,275 962,433 1189,420 1849,1006 1984,1759 82,459 -4,892 -258,1300 -277,445 -691,731 -1246,856 -227,50 -452,76 -672,76zm4936 -60c-362,0 -675,-111 -941,-330 -266,-216 -443,-508 -527,-872 -165,-700 -172,-1328 -19,-1887 117,-436 313,-772 589,-1008 276,-238 605,-359 989,-359 350,0 644,112 879,336 233,221 381,531 441,928 37,235 45,431 24,582l-19 155 -2580 504 10 85c16,189 45,376 91,559 63,269 190,480 379,634 190,157 418,235 684,235 379,0 691,-124 931,-375l318 284c-323,353 -739,530 -1249,530zm91 -4023c-597,0 -989,351 -1179,1052 -34,135 -58,283 -71,450l-10 124 2200 -429 -5 -83c-6,-70 -15,-141 -24,-215 -96,-599 -399,-899 -911,-899zm5043 4023l0 -3004c0,-403 -79,-682 -236,-833 -116,-112 -292,-168 -525,-168 -31,0 -63,2 -96,5 -414,23 -819,161 -1212,410l-44 26 0 3563 -441 0 0 -4359 455 0c10,33 27,63 51,86 36,42 84,63 140,63 29,0 63,-7 99,-21 381,-133 691,-207 927,-221 41,-3 80,-5 121,-5 350,0 626,98 826,293 248,240 371,626 371,1160l0 3004 -436 0zm3708 0c-359,0 -643,-96 -853,-282 -250,-223 -379,-556 -379,-1003l0 -3170 -907 0 0 -506 907 0 0 -1724 506 0 0 1724 879 0 0 506 -879 0 0 3170c0,298 69,508 210,631 115,100 288,149 516,149 32,0 63,0 93,0l60 500c-52,4 -101,6 -153,6zm2581 0c-393,0 -707,-136 -943,-404 -235,-265 -352,-622 -352,-1070 0,-428 132,-773 395,-1035 260,-262 604,-393 1030,-393 319,0 580,46 785,139l122 54 0 -139c0,-348 -35,-602 -103,-758 -81,-178 -231,-301 -455,-367 -103,-34 -217,-51 -344,-51 -309,0 -613,75 -910,224l-190 -382c352,-184 718,-275 1095,-275 168,0 320,20 460,61 353,105 594,314 724,627 87,216 130,532 130,950l0 2729 -426 0c-32,-73 -79,-110 -144,-110 -25,0 -51,7 -79,20 -276,119 -541,180 -794,180zm130 -2466c-309,0 -556,90 -743,270 -182,178 -273,420 -273,720 0,409 114,700 342,872 149,110 330,165 544,165 458,0 797,-148 1018,-444l19 -25 0 -1229 -19 -25c-162,-202 -456,-304 -888,-304zm11944 2466c-393,0 -707,-136 -943,-404 -235,-265 -352,-622 -352,-1070 0,-428 132,-773 395,-1035 260,-262 604,-393 1030,-393 319,0 580,46 785,139l122 54 0 -139c0,-348 -35,-602 -103,-758 -81,-178 -231,-301 -455,-367 -103,-34 -217,-51 -344,-51 -309,0 -613,75 -910,224l-190 -382c352,-184 718,-275 1095,-275 168,0 320,20 460,61 353,105 594,314 724,627 87,216 130,532 130,950l0 2729 -426 0c-32,-73 -79,-110 -144,-110 -25,0 -51,7 -79,20 -276,119 -540,180 -794,180zm130 -2466c-309,0 -556,90 -743,270 -182,178 -273,420 -273,720 0,409 114,700 342,872 149,110 330,165 544,165 458,0 797,-148 1018,-444l19 -25 0 -1229 -19 -25c-162,-202 -457,-304 -888,-304zm-3265 -3552l-506 780 -542 0 505 -780 544 0zm-1027 6017c-391,0 -695,-126 -911,-376 -216,-251 -323,-602 -323,-1055l0 -3027 431 0 0 3027c0,651 267,977 802,977 411,0 832,-137 1264,-412l43 -30 0 -3562 426 0 0 4364 -440 0c-10,-49 -28,-88 -55,-119 -32,-33 -72,-51 -117,-51 -27,0 -53,7 -84,21 -356,161 -702,242 -1038,242zm-5334 2229l0 -6575 426 0c10,22 22,41 38,55 27,29 62,44 102,44 26,0 53,-5 80,-15 285,-130 573,-195 867,-195 338,0 632,123 882,371 253,250 414,578 483,982 131,736 117,1400 -43,1990 -200,743 -661,1114 -1382,1114 -322,0 -629,-67 -918,-202l-122 -60 0 2490 -413 0zm1514 -6244c-378,0 -733,121 -1064,366l-37 29 0 2849 37 24c294,204 629,306 1003,306 515,0 843,-264 984,-792 144,-529 157,-1124 38,-1790 -54,-301 -168,-541 -342,-722 -176,-180 -381,-270 -619,-270zm-20337 -6014l185 0 927 2229 -233 0 -289 -697 -1003 0 -286 697 -236 0 934 -2229zm541 1359l-450 -1102 -456 1102 905 0zm4895 530c-206,224 -443,336 -711,336 -150,0 -287,-32 -413,-96 -126,-64 -235,-148 -327,-253 -92,-105 -165,-224 -217,-357 -52,-133 -78,-269 -78,-409 0,-146 25,-286 76,-420 51,-134 122,-252 214,-353 91,-102 200,-183 324,-244 125,-61 261,-91 408,-91 108,0 207,12 296,35 89,24 169,57 238,99 70,42 130,93 181,151 51,59 94,123 129,193l-168 111c-73,-136 -167,-236 -284,-299 -116,-64 -248,-96 -396,-96 -123,0 -233,26 -332,77 -99,51 -183,120 -252,205 -70,85 -123,183 -161,293 -37,110 -56,224 -56,341 0,123 21,241 64,352 43,111 101,208 176,292 75,83 163,150 263,199 101,49 210,74 329,74 127,0 248,-29 363,-88 115,-59 226,-152 332,-279l0 -364 -493 0 0 -167 676 0 0 1077 -184 0 0 -321zm3399 -2349l305 -259 156 0 309 259 -122 64 -265 -192 -265 192 -118 -64zm1141 2494l0 195 -1512 0 0 -2229 1484 0 0 195 -1262 0 0 804 1100 0 0 185 -1100 0 0 851 1290 0zm3101 -1626l0 1820 -218 0 0 -2229 168 0 1465 1855 0 -1852 218 0 0 2225 -190 0 -1443 -1820zm4317 688c0,-132 23,-263 70,-394 47,-131 115,-247 204,-350 89,-103 200,-187 330,-252 131,-65 280,-97 446,-97 197,0 366,44 507,133 140,89 244,204 310,346l-171 105c-35,-72 -78,-133 -129,-182 -51,-49 -105,-89 -164,-120 -58,-31 -118,-53 -181,-66 -62,-13 -124,-20 -184,-20 -133,0 -250,27 -352,80 -102,54 -188,123 -257,210 -70,86 -122,184 -157,292 -35,108 -53,218 -53,329 0,121 21,238 64,349 43,111 101,209 175,295 74,85 161,153 262,204 101,50 210,76 329,76 62,0 126,-8 192,-23 65,-15 129,-40 190,-74 61,-34 118,-76 170,-127 52,-50 96,-112 131,-184l181 93c-35,82 -85,155 -150,218 -64,63 -136,116 -215,159 -79,43 -163,76 -251,99 -88,23 -175,34 -260,34 -152,0 -291,-33 -418,-99 -127,-66 -236,-152 -327,-258 -91,-106 -163,-226 -214,-361 -51,-135 -76,-272 -76,-412zm5409 1133l0 -2229 222 0 0 2229 -222 0zm4585 -2229l187 0 935 2229 -235 0 -292 -697 -1011 0 -288 697 -238 0 942 -2229zm545 1359l-453 -1102 -460 1102 913 0z"/>
    </clipPath>
 </defs>
 <g id="Layer_x0020_1">
  <metadata id="CorelCorpID_0Corel-Layer"/>
  <g id="_2674648892512">
   <path class="fil0" d="M3307 191c-2014,597 -3351,2496 -3306,4187 7,4114 4036,3711 5671,4913 12,-68 18,-137 18,-208 0,-345 -144,-657 -377,-882 14,-21 28,-42 41,-64 199,127 437,200 692,200 702,0 1270,-555 1270,-1240 0,-25 -1,-50 -2,-75 -1851,-971 -4321,-807 -4351,-2740 -20,-372 134,-771 409,-1085 -131,-81 -286,-127 -452,-127 -173,0 -335,51 -469,138 -30,-122 -74,-238 -130,-347 780,-148 1369,-818 1369,-1623 0,-398 -144,-763 -383,-1048zm4062 13039c468,0 847,370 847,827 0,457 -379,827 -847,827 -468,0 -847,-370 -847,-827 0,-457 379,-827 847,-827zm377 -1621c117,0 212,93 212,207 0,114 -95,207 -212,207 -117,0 -212,-93 -212,-207 0,-114 95,-207 212,-207zm-318 689c234,0 423,185 423,413 0,228 -190,413 -423,413 -234,0 -423,-185 -423,-413 0,-228 190,-413 423,-413zm668 -101c117,0 212,93 212,207 0,114 -95,207 -212,207 -117,0 -212,-93 -212,-207 0,-114 95,-207 212,-207zm582 620c117,0 212,93 212,207 0,114 -95,207 -212,207 -117,0 -212,-93 -212,-207 0,-114 95,-207 212,-207zm-56 -3098c117,0 212,93 212,207 0,114 -95,207 -212,207 -117,0 -212,-93 -212,-207 0,-114 95,-207 212,-207zm1326 -623c117,0 212,93 212,207 0,114 -95,207 -212,207 -117,0 -212,-93 -212,-207 0,-114 95,-207 212,-207zm-741 -827c58,0 106,46 106,103 0,57 -47,103 -106,103 -58,0 -106,-46 -106,-103 0,-57 47,-103 106,-103zm847 3101c58,0 106,46 106,103 0,57 -47,103 -106,103 -58,0 -106,-46 -106,-103 0,-57 47,-103 106,-103zm-2851 -2687c117,0 212,93 212,207 0,114 -95,207 -212,207 -117,0 -212,-93 -212,-207 0,-114 95,-207 212,-207zm2004 369c117,0 212,93 212,207 0,114 -95,207 -212,207 -117,0 -212,-93 -212,-207 0,-114 95,-207 212,-207zm232 607c175,0 318,139 318,310 0,171 -142,310 -318,310 -175,0 -318,-139 -318,-310 0,-171 142,-310 318,-310zm-119 2481c175,0 318,139 318,310 0,171 -142,310 -318,310 -175,0 -318,-139 -318,-310 0,-171 142,-310 318,-310zm-1277 -4697c234,0 423,185 423,413 0,228 -190,413 -423,413 -234,0 -423,-185 -423,-413 0,-228 190,-413 423,-413zm-734 459c175,0 318,139 318,310 0,171 -142,310 -318,310 -175,0 -318,-139 -318,-310 0,-171 142,-310 318,-310zm734 885c234,0 423,185 423,413 0,228 -190,413 -423,413 -234,0 -423,-185 -423,-413 0,-228 190,-413 423,-413zm847 1550c468,0 847,370 847,827 0,457 -379,827 -847,827 -468,0 -847,-370 -847,-827 0,-457 379,-827 847,-827zm-529 -8208c58,0 106,46 106,103 0,57 -47,103 -106,103 -58,0 -106,-46 -106,-103 0,-57 47,-103 106,-103zm-570 2563c58,0 106,46 106,103 0,57 -47,103 -106,103 -58,0 -106,-46 -106,-103 0,-57 47,-103 106,-103zm-455 64c117,0 212,93 212,207 0,114 -95,207 -212,207 -117,0 -212,-93 -212,-207 0,-114 95,-207 212,-207zm1155 -1314c117,0 212,93 212,207 0,114 -95,207 -212,207 -117,0 -212,-93 -212,-207 0,-114 95,-207 212,-207zm-1830 -3091c175,0 318,139 318,310 0,171 -142,310 -318,310 -175,0 -318,-139 -318,-310 0,-171 142,-310 318,-310zm-819 -349c234,0 423,185 423,413 0,228 -190,413 -423,413 -234,0 -423,-185 -423,-413 0,-228 190,-413 423,-413zm-1305 97c468,0 847,370 847,827 0,457 -379,827 -847,827 -468,0 -847,-370 -847,-827 0,-457 379,-827 847,-827zm629 1570c175,0 318,139 318,310 0,171 -142,310 -318,310 -175,0 -318,-139 -318,-310 0,-171 142,-310 318,-310zm94 701c234,0 423,185 423,413 0,228 -190,413 -423,413 -234,0 -423,-185 -423,-413 0,-228 190,-413 423,-413zm-1285 -665c117,0 212,93 212,207 0,114 -95,207 -212,207 -117,0 -212,-93 -212,-207 0,-114 95,-207 212,-207zm-456 853c175,0 318,139 318,310 0,171 -142,310 -318,310 -175,0 -318,-139 -318,-310 0,-171 142,-310 318,-310zm2513 627c117,0 212,93 212,207 0,114 -95,207 -212,207 -117,0 -212,-93 -212,-207 0,-114 95,-207 212,-207zm2580 -2032c58,0 106,46 106,103 0,57 -47,103 -106,103 -58,0 -106,-46 -106,-103 0,-57 47,-103 106,-103zm398 540c58,0 106,46 106,103 0,57 -47,103 -106,103 -58,0 -106,-46 -106,-103 0,-57 47,-103 106,-103zm939 376c117,0 212,93 212,207 0,114 -95,207 -212,207 -117,0 -212,-93 -212,-207 0,-114 95,-207 212,-207zm-1854 -662c117,0 212,93 212,207 0,114 -95,207 -212,207 -117,0 -212,-93 -212,-207 0,-114 95,-207 212,-207zm-1105 1699c234,0 423,185 423,413 0,228 -190,413 -423,413 -234,0 -423,-185 -423,-413 0,-228 190,-413 423,-413zm2249 87c117,0 212,93 212,207 0,114 -95,207 -212,207 -117,0 -212,-93 -212,-207 0,-114 95,-207 212,-207zm-548 -571c175,0 318,139 318,310 0,171 -142,310 -318,310 -175,0 -318,-139 -318,-310 0,-171 142,-310 318,-310zm-736 419c175,0 318,139 318,310 0,171 -142,310 -318,310 -175,0 -318,-139 -318,-310 0,-171 142,-310 318,-310zm405 -3040c58,0 106,46 106,103 0,57 -47,103 -106,103 -58,0 -106,-46 -106,-103 0,-57 47,-103 106,-103zm-1983 2665c117,0 212,93 212,207 0,114 -95,207 -212,207 -117,0 -212,-93 -212,-207 0,-114 95,-207 212,-207zm-526 -520c117,0 212,93 212,207 0,114 -95,207 -212,207 -117,0 -212,-93 -212,-207 0,-114 95,-207 212,-207zm1356 -1033c234,0 423,185 423,413 0,228 -190,413 -423,413 -234,0 -423,-185 -423,-413 0,-228 190,-413 423,-413zm-1285 -9c175,0 318,139 318,310 0,171 -142,310 -318,310 -175,0 -318,-139 -318,-310 0,-171 142,-310 318,-310zm1500 1065c234,0 423,185 423,413 0,228 -190,413 -423,413 -234,0 -423,-185 -423,-413 0,-228 190,-413 423,-413zm1942 2213c117,0 212,93 212,207 0,114 -95,207 -212,207 -117,0 -212,-93 -212,-207 0,-114 95,-207 212,-207zm-870 -252c234,0 423,185 423,413 0,228 -190,413 -423,413 -234,0 -423,-185 -423,-413 0,-228 190,-413 423,-413zm-2181 -278c234,0 423,185 423,413 0,228 -190,413 -423,413 -234,0 -423,-185 -423,-413 0,-228 190,-413 423,-413zm-478 5576c294,267 482,608 509,1075 0,967 -662,1756 -1690,1756 -958,-52 -1575,-634 -1687,-1508l-2968 0c307,2463 2301,4114 4655,4134 219,-3 432,-19 637,-47 31,-76 50,-158 56,-243 54,10 109,16 166,16 468,0 847,-370 847,-827 0,-108 -21,-211 -60,-306 372,-216 621,-613 621,-1066 0,-372 -167,-705 -433,-932 54,-109 85,-231 85,-361 0,-66 -8,-131 -23,-193 305,-125 520,-419 520,-763 0,-457 -379,-827 -847,-827 -140,0 -272,33 -388,92zm1459 1174c234,0 423,185 423,413 0,228 -190,413 -423,413 -234,0 -423,-185 -423,-413 0,-228 190,-413 423,-413zm635 -581c175,0 318,139 318,310 0,171 -142,310 -318,310 -175,0 -318,-139 -318,-310 0,-171 142,-310 318,-310zm-615 -329c117,0 212,93 212,207 0,114 -95,207 -212,207 -117,0 -212,-93 -212,-207 0,-114 95,-207 212,-207zm-959 -1273c234,0 423,185 423,413 0,228 -190,413 -423,413 -234,0 -423,-185 -423,-413 0,-228 190,-413 423,-413z"/>
   <g style="clip-path:url(#id0)">
    <g>
     <path id="1" class="fil1" d="M-60210 40918l101437 -101437 700 700 -101437 101437 -700 -700zm55965 55965l101437 -101437 700 700 -101437 101437 -700 -700zm-1399 -1399l101437 -101437 700 700 -101437 101437 -700 -700zm-1399 -1399l101437 -101437 700 700 -101437 101437 -700 -700zm-1399 -1399l101437 -101437 700 700 -101437 101437 -700 -700zm-1399 -1399l101437 -101437 700 700 -101437 101437 -700 -700zm-1399 -1399l101437 -101437 700 700 -101437 101437 -700 -700zm-1399 -1399l101437 -101437 700 700 -101437 101437 -700 -700zm-1399 -1399l101437 -101437 700 700 -101437 101437 -700 -700zm-1399 -1399l101437 -101437 700 700 -101437 101437 -700 -700zm-1399 -1399l101437 -101437 700 700 -101437 101437 -700 -700zm-1399 -1399l101437 -101437 700 700 -101437 101437 -700 -700zm-1399 -1399l101437 -101437 700 700 -101437 101437 -700 -700zm-1399 -1399l101437 -101437 700 700 -101437 101437 -700 -700zm-1399 -1399l101437 -101437 700 700 -101437 101437 -700 -700zm-1399 -1399l101437 -101437 700 700 -101437 101437 -700 -700zm-1399 -1399l101437 -101437 700 700 -101437 101437 -700 -700zm-1399 -1399l101437 -101437 700 700 -101437 101437 -700 -700zm-1399 -1399l101437 -101437 700 700 -101437 101437 -700 -700zm-1399 -1399l101437 -101437 700 700 -101437 101437 -700 -700zm-1399 -1399l101437 -101437 700 700 -101437 101437 -700 -700zm-1399 -1399l101437 -101437 700 700 -101437 101437 -700 -700zm-1399 -1399l101437 -101437 700 700 -101437 101437 -700 -700zm-1399 -1399l101437 -101437 700 700 -101437 101437 -700 -700zm-1399 -1399l101437 -101437 700 700 -101437 101437 -700 -700zm-1399 -1399l101437 -101437 700 700 -101437 101437 -700 -700zm-1399 -1399l101437 -101437 700 700 -101437 101437 -700 -700zm-1399 -1399l101437 -101437 700 700 -101437 101437 -700 -700zm-1399 -1399l101437 -101437 700 700 -101437 101437 -700 -700zm-1399 -1399l101437 -101437 700 700 -101437 101437 -700 -700zm-1399 -1399l101437 -101437 700 700 -101437 101437 -700 -700zm-1399 -1399l101437 -101437 700 700 -101437 101437 -700 -700zm-1399 -1399l101437 -101437 700 700 -101437 101437 -700 -700zm-1399 -1399l101437 -101437 700 700 -101437 101437 -700 -700zm-1399 -1399l101437 -101437 700 700 -101437 101437 -700 -700zm-1399 -1399l101437 -101437 700 700 -101437 101437 -700 -700zm-1399 -1399l101437 -101437 700 700 -101437 101437 -700 -700zm-1399 -1399l101437 -101437 700 700 -101437 101437 -700 -700zm-1399 -1399l101437 -101437 700 700 -101437 101437 -700 -700zm-1399 -1399l101437 -101437 700 700 -101437 101437 -700 -700zm-1399 -1399l101437 -101437 700 700 -101437 101437 -700 -700z"/>
    </g>
   </g>
   <path class="fil2" d="M3307 191c-2014,597 -3351,2496 -3306,4187 7,4114 4036,3711 5671,4913 12,-68 18,-137 18,-208 0,-345 -144,-657 -377,-882 14,-21 28,-42 41,-64 199,127 437,200 692,200 702,0 1270,-555 1270,-1240 0,-25 -1,-50 -2,-75 -1851,-971 -4321,-807 -4351,-2740 -20,-372 134,-771 409,-1085 -131,-81 -286,-127 -452,-127 -173,0 -335,51 -469,138 -30,-122 -74,-238 -130,-347 780,-148 1369,-818 1369,-1623 0,-398 -144,-763 -383,-1048zm4062 13039c468,0 847,370 847,827 0,457 -379,827 -847,827 -468,0 -847,-370 -847,-827 0,-457 379,-827 847,-827zm377 -1621c117,0 212,93 212,207 0,114 -95,207 -212,207 -117,0 -212,-93 -212,-207 0,-114 95,-207 212,-207zm-318 689c234,0 423,185 423,413 0,228 -190,413 -423,413 -234,0 -423,-185 -423,-413 0,-228 190,-413 423,-413zm668 -101c117,0 212,93 212,207 0,114 -95,207 -212,207 -117,0 -212,-93 -212,-207 0,-114 95,-207 212,-207zm582 620c117,0 212,93 212,207 0,114 -95,207 -212,207 -117,0 -212,-93 -212,-207 0,-114 95,-207 212,-207zm-56 -3098c117,0 212,93 212,207 0,114 -95,207 -212,207 -117,0 -212,-93 -212,-207 0,-114 95,-207 212,-207zm1326 -623c117,0 212,93 212,207 0,114 -95,207 -212,207 -117,0 -212,-93 -212,-207 0,-114 95,-207 212,-207zm-741 -827c58,0 106,46 106,103 0,57 -47,103 -106,103 -58,0 -106,-46 -106,-103 0,-57 47,-103 106,-103zm847 3101c58,0 106,46 106,103 0,57 -47,103 -106,103 -58,0 -106,-46 -106,-103 0,-57 47,-103 106,-103zm-2851 -2687c117,0 212,93 212,207 0,114 -95,207 -212,207 -117,0 -212,-93 -212,-207 0,-114 95,-207 212,-207zm2004 369c117,0 212,93 212,207 0,114 -95,207 -212,207 -117,0 -212,-93 -212,-207 0,-114 95,-207 212,-207zm232 607c175,0 318,139 318,310 0,171 -142,310 -318,310 -175,0 -318,-139 -318,-310 0,-171 142,-310 318,-310zm-119 2481c175,0 318,139 318,310 0,171 -142,310 -318,310 -175,0 -318,-139 -318,-310 0,-171 142,-310 318,-310zm-1277 -4697c234,0 423,185 423,413 0,228 -190,413 -423,413 -234,0 -423,-185 -423,-413 0,-228 190,-413 423,-413zm-734 459c175,0 318,139 318,310 0,171 -142,310 -318,310 -175,0 -318,-139 -318,-310 0,-171 142,-310 318,-310zm734 885c234,0 423,185 423,413 0,228 -190,413 -423,413 -234,0 -423,-185 -423,-413 0,-228 190,-413 423,-413zm847 1550c468,0 847,370 847,827 0,457 -379,827 -847,827 -468,0 -847,-370 -847,-827 0,-457 379,-827 847,-827zm-529 -8208c58,0 106,46 106,103 0,57 -47,103 -106,103 -58,0 -106,-46 -106,-103 0,-57 47,-103 106,-103zm-570 2563c58,0 106,46 106,103 0,57 -47,103 -106,103 -58,0 -106,-46 -106,-103 0,-57 47,-103 106,-103zm-455 64c117,0 212,93 212,207 0,114 -95,207 -212,207 -117,0 -212,-93 -212,-207 0,-114 95,-207 212,-207zm1155 -1314c117,0 212,93 212,207 0,114 -95,207 -212,207 -117,0 -212,-93 -212,-207 0,-114 95,-207 212,-207zm-1830 -3091c175,0 318,139 318,310 0,171 -142,310 -318,310 -175,0 -318,-139 -318,-310 0,-171 142,-310 318,-310zm-819 -349c234,0 423,185 423,413 0,228 -190,413 -423,413 -234,0 -423,-185 -423,-413 0,-228 190,-413 423,-413zm-1305 97c468,0 847,370 847,827 0,457 -379,827 -847,827 -468,0 -847,-370 -847,-827 0,-457 379,-827 847,-827zm629 1570c175,0 318,139 318,310 0,171 -142,310 -318,310 -175,0 -318,-139 -318,-310 0,-171 142,-310 318,-310zm94 701c234,0 423,185 423,413 0,228 -190,413 -423,413 -234,0 -423,-185 -423,-413 0,-228 190,-413 423,-413zm-1285 -665c117,0 212,93 212,207 0,114 -95,207 -212,207 -117,0 -212,-93 -212,-207 0,-114 95,-207 212,-207zm-456 853c175,0 318,139 318,310 0,171 -142,310 -318,310 -175,0 -318,-139 -318,-310 0,-171 142,-310 318,-310zm2513 627c117,0 212,93 212,207 0,114 -95,207 -212,207 -117,0 -212,-93 -212,-207 0,-114 95,-207 212,-207zm2580 -2032c58,0 106,46 106,103 0,57 -47,103 -106,103 -58,0 -106,-46 -106,-103 0,-57 47,-103 106,-103zm398 540c58,0 106,46 106,103 0,57 -47,103 -106,103 -58,0 -106,-46 -106,-103 0,-57 47,-103 106,-103zm939 376c117,0 212,93 212,207 0,114 -95,207 -212,207 -117,0 -212,-93 -212,-207 0,-114 95,-207 212,-207zm-1854 -662c117,0 212,93 212,207 0,114 -95,207 -212,207 -117,0 -212,-93 -212,-207 0,-114 95,-207 212,-207zm-1105 1699c234,0 423,185 423,413 0,228 -190,413 -423,413 -234,0 -423,-185 -423,-413 0,-228 190,-413 423,-413zm2249 87c117,0 212,93 212,207 0,114 -95,207 -212,207 -117,0 -212,-93 -212,-207 0,-114 95,-207 212,-207zm-548 -571c175,0 318,139 318,310 0,171 -142,310 -318,310 -175,0 -318,-139 -318,-310 0,-171 142,-310 318,-310zm-736 419c175,0 318,139 318,310 0,171 -142,310 -318,310 -175,0 -318,-139 -318,-310 0,-171 142,-310 318,-310zm405 -3040c58,0 106,46 106,103 0,57 -47,103 -106,103 -58,0 -106,-46 -106,-103 0,-57 47,-103 106,-103zm-1983 2665c117,0 212,93 212,207 0,114 -95,207 -212,207 -117,0 -212,-93 -212,-207 0,-114 95,-207 212,-207zm-526 -520c117,0 212,93 212,207 0,114 -95,207 -212,207 -117,0 -212,-93 -212,-207 0,-114 95,-207 212,-207zm1356 -1033c234,0 423,185 423,413 0,228 -190,413 -423,413 -234,0 -423,-185 -423,-413 0,-228 190,-413 423,-413zm-1285 -9c175,0 318,139 318,310 0,171 -142,310 -318,310 -175,0 -318,-139 -318,-310 0,-171 142,-310 318,-310zm1500 1065c234,0 423,185 423,413 0,228 -190,413 -423,413 -234,0 -423,-185 -423,-413 0,-228 190,-413 423,-413zm1942 2213c117,0 212,93 212,207 0,114 -95,207 -212,207 -117,0 -212,-93 -212,-207 0,-114 95,-207 212,-207zm-870 -252c234,0 423,185 423,413 0,228 -190,413 -423,413 -234,0 -423,-185 -423,-413 0,-228 190,-413 423,-413zm-2181 -278c234,0 423,185 423,413 0,228 -190,413 -423,413 -234,0 -423,-185 -423,-413 0,-228 190,-413 423,-413zm-478 5576c294,267 482,608 509,1075 0,967 -662,1756 -1690,1756 -958,-52 -1575,-634 -1687,-1508l-2968 0c307,2463 2301,4114 4655,4134 219,-3 432,-19 637,-47 31,-76 50,-158 56,-243 54,10 109,16 166,16 468,0 847,-370 847,-827 0,-108 -21,-211 -60,-306 372,-216 621,-613 621,-1066 0,-372 -167,-705 -433,-932 54,-109 85,-231 85,-361 0,-66 -8,-131 -23,-193 305,-125 520,-419 520,-763 0,-457 -379,-827 -847,-827 -140,0 -272,33 -388,92zm1459 1174c234,0 423,185 423,413 0,228 -190,413 -423,413 -234,0 -423,-185 -423,-413 0,-228 190,-413 423,-413zm635 -581c175,0 318,139 318,310 0,171 -142,310 -318,310 -175,0 -318,-139 -318,-310 0,-171 142,-310 318,-310zm-615 -329c117,0 212,93 212,207 0,114 -95,207 -212,207 -117,0 -212,-93 -212,-207 0,-114 95,-207 212,-207zm-959 -1273c234,0 423,185 423,413 0,228 -190,413 -423,413 -234,0 -423,-185 -423,-413 0,-228 190,-413 423,-413z"/>
   <path class="fil0" d="M14565 12715c-513,0 -966,-136 -1353,-404 -340,-236 -580,-531 -721,-891l469 -127c113,270 292,492 538,665 298,208 653,313 1067,313 179,0 364,-21 553,-60 452,-101 777,-340 979,-715 160,-306 212,-621 156,-942 -105,-585 -664,-1058 -1677,-1417 -477,-170 -832,-334 -1063,-488 -410,-272 -639,-605 -687,-1002 -44,-359 61,-691 319,-997 239,-282 530,-463 878,-543 208,-50 416,-76 620,-76 376,0 706,79 990,237 279,156 479,375 597,653l-469 132c-187,-387 -561,-580 -1124,-580 -160,0 -322,17 -487,55 -235,57 -437,186 -609,387 -179,218 -256,445 -229,681 32,268 193,500 481,695 197,131 517,275 962,433 1189,420 1849,1006 1984,1759 82,459 -4,892 -258,1300 -277,445 -691,731 -1246,856 -227,50 -452,76 -672,76zm4936 -60c-362,0 -675,-111 -941,-330 -266,-216 -443,-508 -527,-872 -165,-700 -172,-1328 -19,-1887 117,-436 313,-772 589,-1008 276,-238 605,-359 989,-359 350,0 644,112 879,336 233,221 381,531 441,928 37,235 45,431 24,582l-19 155 -2580 504 10 85c16,189 45,376 91,559 63,269 190,480 379,634 190,157 418,235 684,235 379,0 691,-124 931,-375l318 284c-323,353 -739,530 -1249,530zm91 -4023c-597,0 -989,351 -1179,1052 -34,135 -58,283 -71,450l-10 124 2200 -429 -5 -83c-6,-70 -15,-141 -24,-215 -96,-599 -399,-899 -911,-899zm5043 4023l0 -3004c0,-403 -79,-682 -236,-833 -116,-112 -292,-168 -525,-168 -31,0 -63,2 -96,5 -414,23 -819,161 -1212,410l-44 26 0 3563 -441 0 0 -4359 455 0c10,33 27,63 51,86 36,42 84,63 140,63 29,0 63,-7 99,-21 381,-133 691,-207 927,-221 41,-3 80,-5 121,-5 350,0 626,98 826,293 248,240 371,626 371,1160l0 3004 -436 0zm3708 0c-359,0 -643,-96 -853,-282 -250,-223 -379,-556 -379,-1003l0 -3170 -907 0 0 -506 907 0 0 -1724 506 0 0 1724 879 0 0 506 -879 0 0 3170c0,298 69,508 210,631 115,100 288,149 516,149 32,0 63,0 93,0l60 500c-52,4 -101,6 -153,6zm2581 0c-393,0 -707,-136 -943,-404 -235,-265 -352,-622 -352,-1070 0,-428 132,-773 395,-1035 260,-262 604,-393 1030,-393 319,0 580,46 785,139l122 54 0 -139c0,-348 -35,-602 -103,-758 -81,-178 -231,-301 -455,-367 -103,-34 -217,-51 -344,-51 -309,0 -613,75 -910,224l-190 -382c352,-184 718,-275 1095,-275 168,0 320,20 460,61 353,105 594,314 724,627 87,216 130,532 130,950l0 2729 -426 0c-32,-73 -79,-110 -144,-110 -25,0 -51,7 -79,20 -276,119 -541,180 -794,180zm130 -2466c-309,0 -556,90 -743,270 -182,178 -273,420 -273,720 0,409 114,700 342,872 149,110 330,165 544,165 458,0 797,-148 1018,-444l19 -25 0 -1229 -19 -25c-162,-202 -456,-304 -888,-304zm11944 2466c-393,0 -707,-136 -943,-404 -235,-265 -352,-622 -352,-1070 0,-428 132,-773 395,-1035 260,-262 604,-393 1030,-393 319,0 580,46 785,139l122 54 0 -139c0,-348 -35,-602 -103,-758 -81,-178 -231,-301 -455,-367 -103,-34 -217,-51 -344,-51 -309,0 -613,75 -910,224l-190 -382c352,-184 718,-275 1095,-275 168,0 320,20 460,61 353,105 594,314 724,627 87,216 130,532 130,950l0 2729 -426 0c-32,-73 -79,-110 -144,-110 -25,0 -51,7 -79,20 -276,119 -540,180 -794,180zm130 -2466c-309,0 -556,90 -743,270 -182,178 -273,420 -273,720 0,409 114,700 342,872 149,110 330,165 544,165 458,0 797,-148 1018,-444l19 -25 0 -1229 -19 -25c-162,-202 -457,-304 -888,-304zm-3265 -3552l-506 780 -542 0 505 -780 544 0zm-1027 6017c-391,0 -695,-126 -911,-376 -216,-251 -323,-602 -323,-1055l0 -3027 431 0 0 3027c0,651 267,977 802,977 411,0 832,-137 1264,-412l43 -30 0 -3562 426 0 0 4364 -440 0c-10,-49 -28,-88 -55,-119 -32,-33 -72,-51 -117,-51 -27,0 -53,7 -84,21 -356,161 -702,242 -1038,242zm-5334 2229l0 -6575 426 0c10,22 22,41 38,55 27,29 62,44 102,44 26,0 53,-5 80,-15 285,-130 573,-195 867,-195 338,0 632,123 882,371 253,250 414,578 483,982 131,736 117,1400 -43,1990 -200,743 -661,1114 -1382,1114 -322,0 -629,-67 -918,-202l-122 -60 0 2490 -413 0zm1514 -6244c-378,0 -733,121 -1064,366l-37 29 0 2849 37 24c294,204 629,306 1003,306 515,0 843,-264 984,-792 144,-529 157,-1124 38,-1790 -54,-301 -168,-541 -342,-722 -176,-180 -381,-270 -619,-270zm-20337 -6014l185 0 927 2229 -233 0 -289 -697 -1003 0 -286 697 -236 0 934 -2229zm541 1359l-450 -1102 -456 1102 905 0zm4895 530c-206,224 -443,336 -711,336 -150,0 -287,-32 -413,-96 -126,-64 -235,-148 -327,-253 -92,-105 -165,-224 -217,-357 -52,-133 -78,-269 -78,-409 0,-146 25,-286 76,-420 51,-134 122,-252 214,-353 91,-102 200,-183 324,-244 125,-61 261,-91 408,-91 108,0 207,12 296,35 89,24 169,57 238,99 70,42 130,93 181,151 51,59 94,123 129,193l-168 111c-73,-136 -167,-236 -284,-299 -116,-64 -248,-96 -396,-96 -123,0 -233,26 -332,77 -99,51 -183,120 -252,205 -70,85 -123,183 -161,293 -37,110 -56,224 -56,341 0,123 21,241 64,352 43,111 101,208 176,292 75,83 163,150 263,199 101,49 210,74 329,74 127,0 248,-29 363,-88 115,-59 226,-152 332,-279l0 -364 -493 0 0 -167 676 0 0 1077 -184 0 0 -321zm3399 -2349l305 -259 156 0 309 259 -122 64 -265 -192 -265 192 -118 -64zm1141 2494l0 195 -1512 0 0 -2229 1484 0 0 195 -1262 0 0 804 1100 0 0 185 -1100 0 0 851 1290 0zm3101 -1626l0 1820 -218 0 0 -2229 168 0 1465 1855 0 -1852 218 0 0 2225 -190 0 -1443 -1820zm4317 688c0,-132 23,-263 70,-394 47,-131 115,-247 204,-350 89,-103 200,-187 330,-252 131,-65 280,-97 446,-97 197,0 366,44 507,133 140,89 244,204 310,346l-171 105c-35,-72 -78,-133 -129,-182 -51,-49 -105,-89 -164,-120 -58,-31 -118,-53 -181,-66 -62,-13 -124,-20 -184,-20 -133,0 -250,27 -352,80 -102,54 -188,123 -257,210 -70,86 -122,184 -157,292 -35,108 -53,218 -53,329 0,121 21,238 64,349 43,111 101,209 175,295 74,85 161,153 262,204 101,50 210,76 329,76 62,0 126,-8 192,-23 65,-15 129,-40 190,-74 61,-34 118,-76 170,-127 52,-50 96,-112 131,-184l181 93c-35,82 -85,155 -150,218 -64,63 -136,116 -215,159 -79,43 -163,76 -251,99 -88,23 -175,34 -260,34 -152,0 -291,-33 -418,-99 -127,-66 -236,-152 -327,-258 -91,-106 -163,-226 -214,-361 -51,-135 -76,-272 -76,-412zm5409 1133l0 -2229 222 0 0 2229 -222 0zm4585 -2229l187 0 935 2229 -235 0 -292 -697 -1011 0 -288 697 -238 0 942 -2229zm545 1359l-453 -1102 -460 1102 913 0z"/>
   <g style="clip-path:url(#id1)">
    <g>
     <path id="1" class="fil1" d="M-147507 69451l273392 -273392 1885 1885 -273392 273392 -1885 -1885zm150837 150837l273392 -273392 1885 1885 -273392 273392 -1885 -1885zm-3771 -3771l273392 -273392 1885 1885 -273392 273392 -1885 -1885zm-3771 -3771l273392 -273392 1885 1885 -273392 273392 -1885 -1885zm-3771 -3771l273392 -273392 1885 1885 -273392 273392 -1885 -1885zm-3771 -3771l273392 -273392 1885 1885 -273392 273392 -1885 -1885zm-3771 -3771l273392 -273392 1885 1885 -273392 273392 -1885 -1885zm-3771 -3771l273392 -273392 1885 1885 -273392 273392 -1885 -1885zm-3771 -3771l273392 -273392 1885 1885 -273392 273392 -1885 -1885zm-3771 -3771l273392 -273392 1885 1885 -273392 273392 -1885 -1885zm-3771 -3771l273392 -273392 1885 1885 -273392 273392 -1885 -1885zm-3771 -3771l273392 -273392 1885 1885 -273392 273392 -1885 -1885zm-3771 -3771l273392 -273392 1885 1885 -273392 273392 -1885 -1885zm-3771 -3771l273392 -273392 1885 1885 -273392 273392 -1885 -1885zm-3771 -3771l273392 -273392 1885 1885 -273392 273392 -1885 -1885zm-3771 -3771l273392 -273392 1885 1885 -273392 273392 -1885 -1885zm-3771 -3771l273392 -273392 1885 1885 -273392 273392 -1885 -1885zm-3771 -3771l273392 -273392 1885 1885 -273392 273392 -1885 -1885zm-3771 -3771l273392 -273392 1885 1885 -273392 273392 -1885 -1885zm-3771 -3771l273392 -273392 1885 1885 -273392 273392 -1885 -1885zm-3771 -3771l273392 -273392 1885 1885 -273392 273392 -1885 -1885zm-3771 -3771l273392 -273392 1885 1885 -273392 273392 -1885 -1885zm-3771 -3771l273392 -273392 1885 1885 -273392 273392 -1885 -1885zm-3771 -3771l273392 -273392 1885 1885 -273392 273392 -1885 -1885zm-3771 -3771l273392 -273392 1885 1885 -273392 273392 -1885 -1885zm-3771 -3771l273392 -273392 1885 1885 -273392 273392 -1885 -1885zm-3771 -3771l273392 -273392 1885 1885 -273392 273392 -1885 -1885zm-3771 -3771l273392 -273392 1885 1885 -273392 273392 -1885 -1885zm-3771 -3771l273392 -273392 1885 1885 -273392 273392 -1885 -1885zm-3771 -3771l273392 -273392 1885 1885 -273392 273392 -1885 -1885zm-3771 -3771l273392 -273392 1885 1885 -273392 273392 -1885 -1885zm-3771 -3771l273392 -273392 1885 1885 -273392 273392 -1885 -1885zm-3771 -3771l273392 -273392 1885 1885 -273392 273392 -1885 -1885zm-3771 -3771l273392 -273392 1885 1885 -273392 273392 -1885 -1885zm-3771 -3771l273392 -273392 1885 1885 -273392 273392 -1885 -1885zm-3771 -3771l273392 -273392 1885 1885 -273392 273392 -1885 -1885zm-3771 -3771l273392 -273392 1885 1885 -273392 273392 -1885 -1885zm-3771 -3771l273392 -273392 1885 1885 -273392 273392 -1885 -1885zm-3771 -3771l273392 -273392 1885 1885 -273392 273392 -1885 -1885zm-3771 -3771l273392 -273392 1885 1885 -273392 273392 -1885 -1885zm-3771 -3771l273392 -273392 1885 1885 -273392 273392 -1885 -1885z"/>
    </g>
   </g>
   <path class="fil2" d="M14565 12715c-513,0 -966,-136 -1353,-404 -340,-236 -580,-531 -721,-891l469 -127c113,270 292,492 538,665 298,208 653,313 1067,313 179,0 364,-21 553,-60 452,-101 777,-340 979,-715 160,-306 212,-621 156,-942 -105,-585 -664,-1058 -1677,-1417 -477,-170 -832,-334 -1063,-488 -410,-272 -639,-605 -687,-1002 -44,-359 61,-691 319,-997 239,-282 530,-463 878,-543 208,-50 416,-76 620,-76 376,0 706,79 990,237 279,156 479,375 597,653l-469 132c-187,-387 -561,-580 -1124,-580 -160,0 -322,17 -487,55 -235,57 -437,186 -609,387 -179,218 -256,445 -229,681 32,268 193,500 481,695 197,131 517,275 962,433 1189,420 1849,1006 1984,1759 82,459 -4,892 -258,1300 -277,445 -691,731 -1246,856 -227,50 -452,76 -672,76zm4936 -60c-362,0 -675,-111 -941,-330 -266,-216 -443,-508 -527,-872 -165,-700 -172,-1328 -19,-1887 117,-436 313,-772 589,-1008 276,-238 605,-359 989,-359 350,0 644,112 879,336 233,221 381,531 441,928 37,235 45,431 24,582l-19 155 -2580 504 10 85c16,189 45,376 91,559 63,269 190,480 379,634 190,157 418,235 684,235 379,0 691,-124 931,-375l318 284c-323,353 -739,530 -1249,530zm91 -4023c-597,0 -989,351 -1179,1052 -34,135 -58,283 -71,450l-10 124 2200 -429 -5 -83c-6,-70 -15,-141 -24,-215 -96,-599 -399,-899 -911,-899zm5043 4023l0 -3004c0,-403 -79,-682 -236,-833 -116,-112 -292,-168 -525,-168 -31,0 -63,2 -96,5 -414,23 -819,161 -1212,410l-44 26 0 3563 -441 0 0 -4359 455 0c10,33 27,63 51,86 36,42 84,63 140,63 29,0 63,-7 99,-21 381,-133 691,-207 927,-221 41,-3 80,-5 121,-5 350,0 626,98 826,293 248,240 371,626 371,1160l0 3004 -436 0zm3708 0c-359,0 -643,-96 -853,-282 -250,-223 -379,-556 -379,-1003l0 -3170 -907 0 0 -506 907 0 0 -1724 506 0 0 1724 879 0 0 506 -879 0 0 3170c0,298 69,508 210,631 115,100 288,149 516,149 32,0 63,0 93,0l60 500c-52,4 -101,6 -153,6zm2581 0c-393,0 -707,-136 -943,-404 -235,-265 -352,-622 -352,-1070 0,-428 132,-773 395,-1035 260,-262 604,-393 1030,-393 319,0 580,46 785,139l122 54 0 -139c0,-348 -35,-602 -103,-758 -81,-178 -231,-301 -455,-367 -103,-34 -217,-51 -344,-51 -309,0 -613,75 -910,224l-190 -382c352,-184 718,-275 1095,-275 168,0 320,20 460,61 353,105 594,314 724,627 87,216 130,532 130,950l0 2729 -426 0c-32,-73 -79,-110 -144,-110 -25,0 -51,7 -79,20 -276,119 -541,180 -794,180zm130 -2466c-309,0 -556,90 -743,270 -182,178 -273,420 -273,720 0,409 114,700 342,872 149,110 330,165 544,165 458,0 797,-148 1018,-444l19 -25 0 -1229 -19 -25c-162,-202 -456,-304 -888,-304zm11944 2466c-393,0 -707,-136 -943,-404 -235,-265 -352,-622 -352,-1070 0,-428 132,-773 395,-1035 260,-262 604,-393 1030,-393 319,0 580,46 785,139l122 54 0 -139c0,-348 -35,-602 -103,-758 -81,-178 -231,-301 -455,-367 -103,-34 -217,-51 -344,-51 -309,0 -613,75 -910,224l-190 -382c352,-184 718,-275 1095,-275 168,0 320,20 460,61 353,105 594,314 724,627 87,216 130,532 130,950l0 2729 -426 0c-32,-73 -79,-110 -144,-110 -25,0 -51,7 -79,20 -276,119 -540,180 -794,180zm130 -2466c-309,0 -556,90 -743,270 -182,178 -273,420 -273,720 0,409 114,700 342,872 149,110 330,165 544,165 458,0 797,-148 1018,-444l19 -25 0 -1229 -19 -25c-162,-202 -457,-304 -888,-304zm-3265 -3552l-506 780 -542 0 505 -780 544 0zm-1027 6017c-391,0 -695,-126 -911,-376 -216,-251 -323,-602 -323,-1055l0 -3027 431 0 0 3027c0,651 267,977 802,977 411,0 832,-137 1264,-412l43 -30 0 -3562 426 0 0 4364 -440 0c-10,-49 -28,-88 -55,-119 -32,-33 -72,-51 -117,-51 -27,0 -53,7 -84,21 -356,161 -702,242 -1038,242zm-5334 2229l0 -6575 426 0c10,22 22,41 38,55 27,29 62,44 102,44 26,0 53,-5 80,-15 285,-130 573,-195 867,-195 338,0 632,123 882,371 253,250 414,578 483,982 131,736 117,1400 -43,1990 -200,743 -661,1114 -1382,1114 -322,0 -629,-67 -918,-202l-122 -60 0 2490 -413 0zm1514 -6244c-378,0 -733,121 -1064,366l-37 29 0 2849 37 24c294,204 629,306 1003,306 515,0 843,-264 984,-792 144,-529 157,-1124 38,-1790 -54,-301 -168,-541 -342,-722 -176,-180 -381,-270 -619,-270zm-20337 -6014l185 0 927 2229 -233 0 -289 -697 -1003 0 -286 697 -236 0 934 -2229zm541 1359l-450 -1102 -456 1102 905 0zm4895 530c-206,224 -443,336 -711,336 -150,0 -287,-32 -413,-96 -126,-64 -235,-148 -327,-253 -92,-105 -165,-224 -217,-357 -52,-133 -78,-269 -78,-409 0,-146 25,-286 76,-420 51,-134 122,-252 214,-353 91,-102 200,-183 324,-244 125,-61 261,-91 408,-91 108,0 207,12 296,35 89,24 169,57 238,99 70,42 130,93 181,151 51,59 94,123 129,193l-168 111c-73,-136 -167,-236 -284,-299 -116,-64 -248,-96 -396,-96 -123,0 -233,26 -332,77 -99,51 -183,120 -252,205 -70,85 -123,183 -161,293 -37,110 -56,224 -56,341 0,123 21,241 64,352 43,111 101,208 176,292 75,83 163,150 263,199 101,49 210,74 329,74 127,0 248,-29 363,-88 115,-59 226,-152 332,-279l0 -364 -493 0 0 -167 676 0 0 1077 -184 0 0 -321zm3399 -2349l305 -259 156 0 309 259 -122 64 -265 -192 -265 192 -118 -64zm1141 2494l0 195 -1512 0 0 -2229 1484 0 0 195 -1262 0 0 804 1100 0 0 185 -1100 0 0 851 1290 0zm3101 -1626l0 1820 -218 0 0 -2229 168 0 1465 1855 0 -1852 218 0 0 2225 -190 0 -1443 -1820zm4317 688c0,-132 23,-263 70,-394 47,-131 115,-247 204,-350 89,-103 200,-187 330,-252 131,-65 280,-97 446,-97 197,0 366,44 507,133 140,89 244,204 310,346l-171 105c-35,-72 -78,-133 -129,-182 -51,-49 -105,-89 -164,-120 -58,-31 -118,-53 -181,-66 -62,-13 -124,-20 -184,-20 -133,0 -250,27 -352,80 -102,54 -188,123 -257,210 -70,86 -122,184 -157,292 -35,108 -53,218 -53,329 0,121 21,238 64,349 43,111 101,209 175,295 74,85 161,153 262,204 101,50 210,76 329,76 62,0 126,-8 192,-23 65,-15 129,-40 190,-74 61,-34 118,-76 170,-127 52,-50 96,-112 131,-184l181 93c-35,82 -85,155 -150,218 -64,63 -136,116 -215,159 -79,43 -163,76 -251,99 -88,23 -175,34 -260,34 -152,0 -291,-33 -418,-99 -127,-66 -236,-152 -327,-258 -91,-106 -163,-226 -214,-361 -51,-135 -76,-272 -76,-412zm5409 1133l0 -2229 222 0 0 2229 -222 0zm4585 -2229l187 0 935 2229 -235 0 -292 -697 -1011 0 -288 697 -238 0 942 -2229zm545 1359l-453 -1102 -460 1102 913 0z"/>
  </g>
 </g>
</svg>
